<?xml version="1.0" encoding="utf-8"?>
<!-- Generator: Adobe Illustrator 18.1.1, SVG Export Plug-In . SVG Version: 6.00 Build 0)  -->
<svg version="1.1" id="Layer_1" xmlns="http://www.w3.org/2000/svg" xmlns:xlink="http://www.w3.org/1999/xlink" x="0px" y="0px"
	 viewBox="0 0 15000 10000" enable-background="new 0 0 15000 10000" xml:space="preserve">
<g>
	<g>
		<g>
			<g>
				<defs>
					<path id="SVGID_1_" d="M13749,9750H1249c-550,0-1000-450-1000-1000V1250c0-550,450-1000,1000-1000h12500
						c550,0,1000,450,1000,1000v7500C14749,9300,14299,9750,13749,9750z"/>
				</defs>
				<clipPath id="SVGID_2_">
					<use xlink:href="#SVGID_1_"  overflow="visible"/>
				</clipPath>
				<rect x="250" y="6583.4" clip-path="url(#SVGID_2_)" fill="#F2A800" width="14500" height="3166.6"/>
			</g>
		</g>
	</g>
	<g>
		<g>
			<g>
				<defs>
					<path id="SVGID_3_" d="M13749,9750H1249c-550,0-1000-450-1000-1000V1250c0-550,450-1000,1000-1000h12500
						c550,0,1000,450,1000,1000v7500C14749,9300,14299,9750,13749,9750z"/>
				</defs>
				<clipPath id="SVGID_4_">
					<use xlink:href="#SVGID_3_"  overflow="visible"/>
				</clipPath>
				<rect x="250" y="3416.6" clip-path="url(#SVGID_4_)" fill="#0033A0" width="14500" height="3166.6"/>
			</g>
		</g>
	</g>
	<g>
		<g>
			<g>
				<defs>
					<path id="SVGID_5_" d="M13749,9750H1249c-550,0-1000-450-1000-1000V1250c0-550,450-1000,1000-1000h12500
						c550,0,1000,450,1000,1000v7500C14749,9300,14299,9750,13749,9750z"/>
				</defs>
				<clipPath id="SVGID_6_">
					<use xlink:href="#SVGID_5_"  overflow="visible"/>
				</clipPath>
				<rect x="250" y="250" clip-path="url(#SVGID_6_)" fill="#D90012" width="14500" height="3166.6"/>
			</g>
		</g>
	</g>
	<g>
		<g>
			<g>
				<defs>
					<path id="SVGID_7_" d="M13749,9750H1249c-550,0-1000-450-1000-1000V1250c0-550,450-1000,1000-1000h12500
						c550,0,1000,450,1000,1000v7500C14749,9300,14299,9750,13749,9750z"/>
				</defs>
				<clipPath id="SVGID_8_">
					<use xlink:href="#SVGID_7_"  overflow="visible"/>
				</clipPath>
				
					<ellipse id="_x3C_Clip_Group_x3E_" opacity="0.25" clip-path="url(#SVGID_8_)" fill="#FFFFFF" enable-background="new    " cx="7499" cy="1705.4" rx="7772.5" ry="2974.4"/>
			</g>
		</g>
	</g>
</g>
</svg>
