<svg xmlns="http://www.w3.org/2000/svg" width="20" height="25" viewBox="0 0 20.635 26.035"><defs><style>.a{fill:#8086a2;}</style></defs><g transform="translate(0)"><path class="a" d="M184.9,465.044a3.933,3.933,0,0,0,7.2,0Z" transform="translate(-178.186 -441.358)"/><path class="a" d="M199.3,2.487a8.846,8.846,0,0,1,3.021.529V2.9a2.9,2.9,0,0,0-2.9-2.9h-.24a2.9,2.9,0,0,0-2.9,2.9v.115A8.863,8.863,0,0,1,199.3,2.487Z" transform="translate(-188.98 0)"/><path class="a" d="M72.864,96.979H53.8a.777.777,0,0,1-.766-.6.741.741,0,0,1,.408-.843,4.046,4.046,0,0,0,1.231-1.674,19.34,19.34,0,0,0,1.284-7.653,7.376,7.376,0,0,1,14.752-.029q0,.015,0,.029a19.34,19.34,0,0,0,1.284,7.653,4.045,4.045,0,0,0,1.231,1.674.741.741,0,0,1,.408.843A.777.777,0,0,1,72.864,96.979Zm.367-1.434h0Z" transform="translate(-53.013 -74.821)"/></g></svg>